<svg width="40" height="41" viewBox="0 0 40 41" fill="none" xmlns="http://www.w3.org/2000/svg">
<g id="Group">
<path id="Vector" d="M20.0002 0.525513C8.95583 0.525513 0 9.69458 0 21.0057C0 30.0544 5.73066 37.7312 13.6773 40.4393C14.6769 40.6288 15.0438 39.995 15.0438 39.454C15.0438 38.9657 15.0253 37.3524 15.0167 35.6411C9.45262 36.88 8.27853 33.2247 8.27853 33.2247C7.36874 30.8574 6.05788 30.228 6.05788 30.228C4.24326 28.9569 6.19466 28.983 6.19466 28.983C8.20302 29.1275 9.26053 31.0935 9.26053 31.0935C11.0443 34.2245 13.9393 33.3193 15.0806 32.796C15.2601 31.4723 15.7784 30.5688 16.3504 30.0574C11.9081 29.5395 7.23825 27.7835 7.23825 19.936C7.23825 17.7001 8.01954 15.8731 9.29894 14.4389C9.09129 13.923 8.40671 11.84 9.49269 9.01901C9.49269 9.01901 11.1722 8.46858 14.9942 11.1183C16.5895 10.6645 18.3005 10.437 20.0002 10.4292C21.6999 10.437 23.4121 10.6645 25.0105 11.1183C28.8278 8.46858 30.505 9.01901 30.505 9.01901C31.5936 11.84 30.9087 13.923 30.7011 14.4389C31.9834 15.8731 32.7594 17.7001 32.7594 19.936C32.7594 27.8021 28.0806 29.5341 23.6271 30.0411C24.3444 30.6767 24.9836 31.923 24.9836 33.8338C24.9836 36.574 24.9605 38.7795 24.9605 39.454C24.9605 39.999 25.3205 40.6377 26.3343 40.4365C34.2766 37.7254 40 30.0513 40 21.0057C40 9.69458 31.0455 0.525513 20.0002 0.525513ZM7.49071 29.6999C7.44666 29.8017 7.29034 29.8322 7.14793 29.7623C7.00286 29.6955 6.92139 29.5568 6.96842 29.4547C7.01147 29.35 7.16813 29.3208 7.31286 29.391C7.45826 29.4578 7.54105 29.5979 7.49071 29.6999ZM8.4745 30.5988C8.37911 30.6894 8.19265 30.6473 8.06614 30.5042C7.93531 30.3614 7.91081 30.1705 8.00751 30.0786C8.10588 29.988 8.28671 30.0304 8.41786 30.1732C8.54869 30.3177 8.57419 30.5073 8.4745 30.5988ZM9.14941 31.7489C9.02687 31.8361 8.8265 31.7544 8.70263 31.5722C8.58009 31.3901 8.58009 31.1717 8.70528 31.0842C8.82948 30.9967 9.02687 31.0754 9.15239 31.2562C9.2746 31.4413 9.2746 31.6597 9.14941 31.7489ZM10.2908 33.0809C10.1812 33.2047 9.94772 33.1715 9.77682 33.0026C9.60195 32.8374 9.55327 32.603 9.66322 32.4793C9.77417 32.3551 10.009 32.3901 10.1812 32.5576C10.3548 32.7224 10.4077 32.9585 10.2908 33.0809ZM11.766 33.5306C11.7177 33.691 11.4928 33.7639 11.2662 33.6957C11.04 33.6255 10.892 33.4376 10.9377 33.2755C10.9847 33.1141 11.2106 33.0381 11.4388 33.111C11.6647 33.1809 11.813 33.3674 11.766 33.5306ZM13.4448 33.7213C13.4505 33.8902 13.2584 34.0303 13.0206 34.0333C12.7815 34.0387 12.588 33.9021 12.5854 33.7359C12.5854 33.5653 12.7732 33.4266 13.0123 33.4225C13.2501 33.4178 13.4448 33.5534 13.4448 33.7213ZM15.0941 33.6566C15.1226 33.8214 14.9573 33.9906 14.7212 34.0357C14.489 34.0791 14.274 33.9774 14.2446 33.8139C14.2158 33.645 14.384 33.4758 14.6158 33.432C14.8523 33.39 15.0639 33.489 15.0941 33.6566Z" fill="#B5B4CF"/>
</g>
</svg>
